<?xml version="1.0" encoding="utf-8"?>
<!DOCTYPE svg PUBLIC "-//W3C//DTD SVG 1.1//EN" "http://www.w3.org/Graphics/SVG/1.1/DTD/svg11.dtd">
<!-- Generated by SVG sprite (visit: https:/socode4.com/app/en/) -->
<svg>
<symbol width="17" height="16" xmlns="http://www.w3.org/2000/svg" id="ahgsc" viewbox="0 0 17 16"><path d="M16.539 6.097a.297.297 0 00-.24-.202l-5.36-.779L8.542.26a.296.296 0 00-.53 0L5.613 5.117l-5.36.779a.297.297 0 00-.165.505l3.88 3.78-.917 5.34a.297.297 0 00.43.312l4.795-2.52 4.794 2.52a.296.296 0 00.43-.313l-.916-5.338L16.464 6.4c.08-.08.11-.197.075-.304z" fill="#EF9546" fill-rule="nonzero"></path></symbol><symbol width="17" height="16" xmlns="http://www.w3.org/2000/svg" id="bs" viewbox="0 0 17 16"><path d="M16.539 6.097a.297.297 0 00-.24-.202l-5.36-.779L8.542.26a.296.296 0 00-.53 0L5.613 5.117l-5.36.779a.297.297 0 00-.165.505l3.88 3.78-.917 5.34a.297.297 0 00.43.312l4.795-2.52 4.794 2.52a.296.296 0 00.43-.313l-.916-5.338L16.464 6.4c.08-.08.11-.197.075-.304z" fill="#EF9546" fill-rule="nonzero"></path></symbol><symbol width="17" height="16" xmlns="http://www.w3.org/2000/svg" id="hwgv" viewbox="0 0 17 16"><path d="M16.539 6.097a.297.297 0 00-.24-.202l-5.36-.779L8.542.26a.296.296 0 00-.53 0L5.613 5.117l-5.36.779a.297.297 0 00-.165.505l3.88 3.78-.917 5.34a.297.297 0 00.43.312l4.795-2.52 4.794 2.52a.296.296 0 00.43-.313l-.916-5.338L16.464 6.4c.08-.08.11-.197.075-.304z" fill="#EF9546" fill-rule="nonzero"></path></symbol><symbol width="17" height="16" xmlns="http://www.w3.org/2000/svg" id="icon-star" viewbox="0 0 17 16"><path d="M16.539 6.097a.297.297 0 00-.24-.202l-5.36-.779L8.542.26a.296.296 0 00-.53 0L5.613 5.117l-5.36.779a.297.297 0 00-.165.505l3.88 3.78-.917 5.34a.297.297 0 00.43.312l4.795-2.52 4.794 2.52a.296.296 0 00.43-.313l-.916-5.338L16.464 6.4c.08-.08.11-.197.075-.304z" fill="#EF9546" fill-rule="nonzero"></path></symbol><symbol width="17" height="16" xmlns="http://www.w3.org/2000/svg" id="jhcbowc" viewbox="0 0 17 16"><path d="M16.539 6.097a.297.297 0 00-.24-.202l-5.36-.779L8.542.26a.296.296 0 00-.53 0L5.613 5.117l-5.36.779a.297.297 0 00-.165.505l3.88 3.78-.917 5.34a.297.297 0 00.43.312l4.795-2.52 4.794 2.52a.296.296 0 00.43-.313l-.916-5.338L16.464 6.4c.08-.08.11-.197.075-.304z" fill="#EF9546" fill-rule="nonzero"></path></symbol>
</svg>